<?xml version="1.0" encoding="UTF-8" standalone="no"?>
<!DOCTYPE svg PUBLIC "-//W3C//DTD SVG 1.1//EN" "http://www.w3.org/Graphics/SVG/1.1/DTD/svg11.dtd">
<svg width="100%" height="100%" viewBox="0 0 1000 1000" version="1.1" xmlns="http://www.w3.org/2000/svg" xmlns:xlink="http://www.w3.org/1999/xlink" xml:space="preserve" xmlns:serif="http://www.serif.com/" style="fill-rule:evenodd;clip-rule:evenodd;stroke-linejoin:round;stroke-miterlimit:2;">
    <rect id="Artboard1" x="0" y="0" width="1000" height="1000"/>
    <g id="Artboard11" serif:id="Artboard1">
        <g>
            <path d="M148,113.936L196,113.936L196,161.936C196,172.688 192.608,180.72 185.824,186.032C179.04,191.344 171.808,194 164.128,194L132.064,194C123.36,194 115.84,190.864 109.504,184.592C103.168,178.32 100,170.768 100,161.936L100,82.064C100,73.36 103.104,65.84 109.312,59.504C115.52,53.168 123.104,50 132.064,50L164.128,50C184.224,50 194.848,60.688 196,82.064L180.064,82.064C178.784,71.312 173.472,65.936 164.128,65.936L148,65.936C143.648,65.936 139.904,67.504 136.768,70.64C133.632,73.776 132.064,77.584 132.064,82.064L132.064,161.936C132.064,166.416 133.632,170.224 136.768,173.36C139.904,176.496 143.648,178.064 148,178.064C158.24,177.552 163.616,172.176 164.128,161.936L164.128,130.064L148,130.064L148,113.936Z" style="fill:white;fill-rule:nonzero;"/>
            <path d="M260.128,194L228.064,194L228.064,82.064L260.128,82.064L260.128,113.936C261.408,103.312 264.704,95.344 270.016,90.032C275.328,84.72 282.72,82.064 292.192,82.064L308.128,82.064L308.128,113.936L276.064,113.936C271.712,113.936 267.968,115.504 264.832,118.64C261.696,121.776 260.128,125.584 260.128,130.064L260.128,194Z" style="fill:white;fill-rule:nonzero;"/>
            <path d="M388.192,130.064L388.192,113.936C388.192,109.584 386.624,105.84 383.488,102.704C380.352,99.568 376.544,98 372.064,98L356.128,98C346.656,98 341.344,103.312 340.192,113.936L324.064,113.936C326.624,92.688 337.312,82.064 356.128,82.064L388.192,82.064C396.896,82.064 404.384,85.2 410.656,91.472C416.928,97.744 420.064,105.232 420.064,113.936L420.064,194L388.192,194L388.192,178.064C386.912,188.688 381.536,194 372.064,194L356.128,194C347.424,194 339.904,190.864 333.568,184.592C327.232,178.32 324.064,170.768 324.064,161.936C324.064,153.232 327.232,145.744 333.568,139.472C339.904,133.2 347.424,130.064 356.128,130.064L388.192,130.064ZM388.192,146L372.064,146C367.712,146 363.968,147.568 360.832,150.704C357.696,153.84 356.128,157.584 356.128,161.936C356.128,166.288 357.696,170.064 360.832,173.264C363.968,176.464 367.712,178.064 372.064,178.064C376.544,178.064 380.352,176.464 383.488,173.264C386.624,170.064 388.192,166.288 388.192,161.936L388.192,146Z" style="fill:white;fill-rule:nonzero;"/>
            <path d="M516.256,82.064L548.128,82.064L548.128,139.28C548.128,154.256 542.784,167.12 532.096,177.872C521.408,188.624 508.576,194 493.6,194L452.128,194L452.128,82.064L484.192,82.064L484.192,178.064L500.128,178.064C504.608,178.064 508.416,176.464 511.552,173.264C514.688,170.064 516.256,166.288 516.256,161.936L516.256,82.064Z" style="fill:white;fill-rule:nonzero;"/>
            <path d="M580.192,65.936L580.192,50L612.256,50L612.256,65.936L580.192,65.936ZM580.192,194L580.192,82.064L612.256,82.064L612.256,194L580.192,194Z" style="fill:white;fill-rule:nonzero;"/>
            <path d="M660.256,50L692.128,50L692.128,82.064L708.256,82.064L708.256,98L692.128,98L692.128,161.936C692.128,167.184 693.856,171.184 697.312,173.936C700.768,176.688 703.904,178.064 706.72,178.064L708.256,178.064L708.256,194L692.128,194C683.424,194 675.936,190.864 669.664,184.592C663.392,178.32 660.256,170.768 660.256,161.936L660.256,98L644.128,98L644.128,82.064L660.256,82.064L660.256,50Z" style="fill:white;fill-rule:nonzero;"/>
            <path d="M756.256,209.936C757.024,220.688 762.336,226.064 772.192,226.064L788.128,226.064C792.608,226.064 796.416,224.496 799.552,221.36C802.688,218.224 804.256,214.416 804.256,209.936L804.256,178.064C802.976,188.688 797.6,194 788.128,194L772.192,194C763.488,194 755.968,190.864 749.632,184.592C743.296,178.32 740.128,170.768 740.128,161.936L740.128,82.064L772.192,82.064L772.192,161.936C772.192,166.288 773.76,170.064 776.896,173.264C780.032,176.464 783.776,178.064 788.128,178.064C792.608,178.064 796.416,176.464 799.552,173.264C802.688,170.064 804.256,166.288 804.256,161.936L804.256,82.064L836.128,82.064L836.128,209.936C836.128,218.64 832.992,226.16 826.72,232.496C820.448,238.832 812.96,242 804.256,242L772.192,242C753.376,242 742.688,231.312 740.128,209.936L756.256,209.936Z" style="fill:white;fill-rule:nonzero;"/>
        </g>
        <g>
            <path d="M100,369L100,257.064C100,248.232 103.168,240.68 109.504,234.408C115.84,228.136 123.36,225 132.064,225L164.128,225C172.832,225 180.32,228.168 186.592,234.504C192.864,240.84 196,248.36 196,257.064L196,369L164.128,369L164.128,305.064L132.064,305.064L132.064,369L100,369ZM132.064,288.936L164.128,288.936L164.128,257.064C164.128,252.584 162.56,248.776 159.424,245.64C156.288,242.504 152.48,240.936 148,240.936C143.648,240.936 139.904,242.504 136.768,245.64C133.632,248.776 132.064,252.584 132.064,257.064L132.064,288.936Z" style="fill:white;fill-rule:nonzero;"/>
            <path d="M308.128,288.936L292.192,288.936C290.784,278.312 285.728,273 277.024,273C271.392,273 267.168,274.12 264.352,276.36C261.536,278.6 260.128,281.896 260.128,286.248C260.128,290.856 267.872,297.32 283.36,305.64C296.032,312.424 303.328,318.056 305.248,322.536C307.168,327.016 308.128,331.816 308.128,336.936C308.128,345.768 304.992,353.32 298.72,359.592C292.448,365.864 284.896,369 276.064,369L260.128,369C238.752,369 228.064,358.312 228.064,336.936L244.192,336.936C245.472,347.688 250.464,353.064 259.168,353.064C264.928,353.064 269.216,351.944 272.032,349.704C274.848,347.464 276.256,344.104 276.256,339.624C276.256,335.144 268.512,328.744 253.024,320.424C240.352,313.64 233.024,308.008 231.04,303.528C229.056,299.048 228.064,294.248 228.064,289.128C228.064,280.296 231.232,272.744 237.568,266.472C243.904,260.2 251.424,257.064 260.128,257.064L276.064,257.064C296.16,257.064 306.848,267.688 308.128,288.936Z" style="fill:white;fill-rule:nonzero;"/>
            <path d="M420.064,288.936L404.128,288.936C402.72,278.312 397.664,273 388.96,273C383.328,273 379.104,274.12 376.288,276.36C373.472,278.6 372.064,281.896 372.064,286.248C372.064,290.856 379.808,297.32 395.296,305.64C407.968,312.424 415.264,318.056 417.184,322.536C419.104,327.016 420.064,331.816 420.064,336.936C420.064,345.768 416.928,353.32 410.656,359.592C404.384,365.864 396.832,369 388,369L372.064,369C350.688,369 340,358.312 340,336.936L356.128,336.936C357.408,347.688 362.4,353.064 371.104,353.064C376.864,353.064 381.152,351.944 383.968,349.704C386.784,347.464 388.192,344.104 388.192,339.624C388.192,335.144 380.448,328.744 364.96,320.424C352.288,313.64 344.96,308.008 342.976,303.528C340.992,299.048 340,294.248 340,289.128C340,280.296 343.168,272.744 349.504,266.472C355.84,260.2 363.36,257.064 372.064,257.064L388,257.064C408.096,257.064 418.784,267.688 420.064,288.936Z" style="fill:white;fill-rule:nonzero;"/>
            <path d="M451.936,240.936L451.936,225L484,225L484,240.936L451.936,240.936ZM451.936,369L451.936,257.064L484,257.064L484,369L451.936,369Z" style="fill:white;fill-rule:nonzero;"/>
            <path d="M595.936,288.936L580,288.936C578.592,278.312 573.536,273 564.832,273C559.2,273 554.976,274.12 552.16,276.36C549.344,278.6 547.936,281.896 547.936,286.248C547.936,290.856 555.68,297.32 571.168,305.64C583.84,312.424 591.136,318.056 593.056,322.536C594.976,327.016 595.936,331.816 595.936,336.936C595.936,345.768 592.8,353.32 586.528,359.592C580.256,365.864 572.704,369 563.872,369L547.936,369C526.56,369 515.872,358.312 515.872,336.936L532,336.936C533.28,347.688 538.272,353.064 546.976,353.064C552.736,353.064 557.024,351.944 559.84,349.704C562.656,347.464 564.064,344.104 564.064,339.624C564.064,335.144 556.32,328.744 540.832,320.424C528.16,313.64 520.832,308.008 518.848,303.528C516.864,299.048 515.872,294.248 515.872,289.128C515.872,280.296 519.04,272.744 525.376,266.472C531.712,260.2 539.232,257.064 547.936,257.064L563.872,257.064C583.968,257.064 594.656,267.688 595.936,288.936Z" style="fill:white;fill-rule:nonzero;"/>
            <path d="M643.936,225L675.808,225L675.808,257.064L691.936,257.064L691.936,273L675.808,273L675.808,336.936C675.808,342.184 677.536,346.184 680.992,348.936C684.448,351.688 687.584,353.064 690.4,353.064L691.936,353.064L691.936,369L675.808,369C667.104,369 659.616,365.864 653.344,359.592C647.072,353.32 643.936,345.768 643.936,336.936L643.936,273L627.808,273L627.808,257.064L643.936,257.064L643.936,225Z" style="fill:white;fill-rule:nonzero;"/>
        </g>
        <g transform="matrix(1,0,0,1,4.49166,-67.2853)">
            <text x="95.579px" y="527.231px" style="font-family:'ArialMT', 'Arial', sans-serif;font-size:48px;fill:white;">Y<tspan x="123.188px 149.883px " y="527.231px 527.231px ">ou</tspan>r ship is out of gas!</text>
            <text x="95.579px" y="576.801px" style="font-family:'ArialMT', 'Arial', sans-serif;font-size:48px;fill:white;">Use your Enbiggen Beam (the mouse)</text>
            <text x="95.579px" y="626.371px" style="font-family:'ArialMT', 'Arial', sans-serif;font-size:48px;fill:white;">to grow or shrink the nearby gravity wells</text>
            <text x="95.579px" y="675.942px" style="font-family:'ArialMT', 'Arial', sans-serif;font-size:48px;fill:white;">to keep on course as long as you can.</text>
            <text x="95.579px" y="775.082px" style="font-family:'ArialMT', 'Arial', sans-serif;font-size:48px;fill:white;">Also your oxygen supply is reﬁlled by</text>
            <text x="95.579px" y="824.652px" style="font-family:'ArialMT', 'Arial', sans-serif;font-size:48px;fill:white;">being near gravity wells for some reason.</text>
            <text x="95.579px" y="874.223px" style="font-family:'ArialMT', 'Arial', sans-serif;font-size:48px;fill:white;">Don&apos;t die!</text>
        </g>
        <rect x="300" y="850" width="425" height="100" style="fill:white;"/>
        <text x="421.864px" y="925px" style="font-family:'ArialMT', 'Arial', sans-serif;font-size:69.802px;">Start</text>
    </g>
</svg>
