<?xml version="1.0" encoding="UTF-8" standalone="no"?>
<!DOCTYPE svg PUBLIC "-//W3C//DTD SVG 1.1//EN" "http://www.w3.org/Graphics/SVG/1.1/DTD/svg11.dtd">
<svg width="100%" height="100%" viewBox="0 0 100 100" version="1.1" xmlns="http://www.w3.org/2000/svg" xmlns:xlink="http://www.w3.org/1999/xlink" xml:space="preserve" xmlns:serif="http://www.serif.com/" style="fill-rule:evenodd;clip-rule:evenodd;stroke-linejoin:round;stroke-miterlimit:2;">
    <g>
        <path d="M15,90L20,100L15,95L15,90Z" style="fill:rgb(174,1,186);"/>
        <path d="M10,80L5,90L10,85L10,80Z" style="fill:rgb(174,1,186);"/>
        <path d="M0,55L5,45L0,50L0,55Z" style="fill:rgb(174,1,186);"/>
        <path d="M95,50L100,40L100,45L95,50Z" style="fill:rgb(174,1,186);"/>
        <path d="M15,10L20,5L10,10L15,10Z" style="fill:rgb(174,1,186);"/>
        <path d="M90,20L95,10L95,15L90,20Z" style="fill:rgb(174,1,186);"/>
        <path d="M75,0L80,10L75,5L75,0Z" style="fill:rgb(174,1,186);"/>
        <path d="M95,80L100,70L100,75L95,80Z" style="fill:rgb(174,1,186);"/>
        <path d="M10,20L5,20L5,25L10,20Z" style="fill:rgb(174,1,186);"/>
        <path d="M60,5L50,0L55,0L60,5Z" style="fill:rgb(174,1,186);"/>
        <path d="M45,95L50,100L40,95L45,95" style="fill:rgb(174,1,186);"/>
        <path d="M80,95L85,95L90,90L80,95Z" style="fill:rgb(174,1,186);"/>
    </g>
    <rect id="Artboard1" x="0" y="0" width="100" height="100" style="fill:none;"/>
    <g id="Artboard11" serif:id="Artboard1">
        <path d="M5,55L10,50L5,75L10,70L20,85L20,80L30,95L30,90L55,95L50,90L75,95L70,90L85,80L80,80L95,70L90,70L95,55L90,60L95,30L90,35L80,15L80,20L65,5L65,10L45,5L50,10L25,5L30,10L15,20L20,20L5,35L10,35L5,55Z" style="fill:rgb(174,1,186);"/>
        <path d="M20,65L25,45L20,45L30,35L20,30L40,30L35,20L55,25L55,15L65,35L70,25L70,45L80,40L70,55L80,55L65,65L75,70L55,75L60,80L40,70L40,80L30,65L25,80L25,60L20,65Z" style="fill:rgb(123,0,138);"/>
        <path d="M45,45L35,50L45,55L50,65L55,55L65,50L55,45L50,35L45,45Z" style="fill:rgb(63,0,75);"/>
    </g>
</svg>
